<?xml version="1.0" encoding="UTF-8" standalone="no"?>
<!DOCTYPE svg PUBLIC "-//W3C//DTD SVG 1.1//EN"
 "http://www.w3.org/Graphics/SVG/1.1/DTD/svg11.dtd">
<!-- Generated by graphviz version 2.43.0 (0)
 -->
<!-- Title: AFD Pages: 1 -->
<svg width="250pt" height="127pt"
 viewBox="0.00 0.00 250.49 127.50" xmlns="http://www.w3.org/2000/svg" xmlns:xlink="http://www.w3.org/1999/xlink">
<g id="graph0" class="graph" transform="scale(1 1) rotate(0) translate(4 123.5)">
<title>AFD</title>
<polygon fill="white" stroke="transparent" points="-4,4 -4,-123.5 246.49,-123.5 246.49,4 -4,4"/>
<!-- S0 -->
<g id="node1" class="node">
<title>S0</title>
<ellipse fill="none" stroke="black" cx="22.75" cy="-26.75" rx="23" ry="23"/>
<text text-anchor="middle" x="22.75" y="-23.05" font-family="Times,serif" font-size="14.00">S0</text>
</g>
<!-- S1 -->
<g id="node2" class="node">
<title>S1</title>
<ellipse fill="none" stroke="black" cx="118.24" cy="-26.75" rx="22.96" ry="22.96"/>
<ellipse fill="none" stroke="black" cx="118.24" cy="-26.75" rx="27" ry="27"/>
<text text-anchor="middle" x="118.24" y="-23.05" font-family="Times,serif" font-size="14.00">S1</text>
</g>
<!-- S0&#45;&gt;S1 -->
<g id="edge1" class="edge">
<title>S0&#45;&gt;S1</title>
<path fill="none" stroke="black" d="M45.91,-26.75C56.43,-26.75 69.28,-26.75 81.16,-26.75"/>
<polygon fill="black" stroke="black" points="81.27,-30.25 91.27,-26.75 81.27,-23.25 81.27,-30.25"/>
<text text-anchor="middle" x="68.5" y="-30.55" font-family="Times,serif" font-size="14.00">b</text>
</g>
<!-- S0&#45;&gt;S1 -->
<g id="edge2" class="edge">
<title>S0&#45;&gt;S1</title>
<path fill="none" stroke="black" d="M42.93,-15.46C49.26,-12.32 56.48,-9.34 63.5,-7.75 70.8,-6.09 78.47,-7.07 85.67,-9.28"/>
<polygon fill="black" stroke="black" points="84.51,-12.58 95.1,-12.91 87.02,-6.05 84.51,-12.58"/>
<text text-anchor="middle" x="68.5" y="-11.55" font-family="Times,serif" font-size="14.00">a</text>
</g>
<!-- S1&#45;&gt;S1 -->
<g id="edge3" class="edge">
<title>S1&#45;&gt;S1</title>
<path fill="none" stroke="black" d="M113.75,-53.39C113.61,-63.32 115.1,-71.5 118.24,-71.5 120.21,-71.5 121.53,-68.3 122.21,-63.48"/>
<polygon fill="black" stroke="black" points="125.71,-63.56 122.73,-53.39 118.72,-63.2 125.71,-63.56"/>
<text text-anchor="middle" x="118.24" y="-75.3" font-family="Times,serif" font-size="14.00">b</text>
</g>
<!-- S1&#45;&gt;S1 -->
<g id="edge4" class="edge">
<title>S1&#45;&gt;S1</title>
<path fill="none" stroke="black" d="M110.21,-52.53C107.6,-71.05 110.28,-89.5 118.24,-89.5 124.72,-89.5 127.7,-77.32 127.19,-62.82"/>
<polygon fill="black" stroke="black" points="130.64,-62.18 126.27,-52.53 123.67,-62.8 130.64,-62.18"/>
<text text-anchor="middle" x="118.24" y="-93.3" font-family="Times,serif" font-size="14.00">a</text>
</g>
<!-- S2 -->
<g id="node3" class="node">
<title>S2</title>
<ellipse fill="none" stroke="black" cx="215.74" cy="-26.75" rx="22.96" ry="22.96"/>
<ellipse fill="none" stroke="black" cx="215.74" cy="-26.75" rx="27" ry="27"/>
<text text-anchor="middle" x="215.74" y="-23.05" font-family="Times,serif" font-size="14.00">S2</text>
</g>
<!-- S1&#45;&gt;S2 -->
<g id="edge5" class="edge">
<title>S1&#45;&gt;S2</title>
<path fill="none" stroke="black" d="M145.09,-26.75C155.38,-26.75 167.42,-26.75 178.56,-26.75"/>
<polygon fill="black" stroke="black" points="178.88,-30.25 188.88,-26.75 178.88,-23.25 178.88,-30.25"/>
<text text-anchor="middle" x="166.99" y="-30.55" font-family="Times,serif" font-size="14.00">c</text>
</g>
<!-- S2&#45;&gt;S2 -->
<g id="edge6" class="edge">
<title>S2&#45;&gt;S2</title>
<path fill="none" stroke="black" d="M206.82,-52.05C206.2,-62.57 209.18,-71.5 215.74,-71.5 220.05,-71.5 222.81,-67.65 224.02,-62.04"/>
<polygon fill="black" stroke="black" points="227.52,-62.25 224.66,-52.05 220.53,-61.81 227.52,-62.25"/>
<text text-anchor="middle" x="215.74" y="-75.3" font-family="Times,serif" font-size="14.00">c</text>
</g>
</g>
</svg>
