<?xml version="1.0" encoding="UTF-8" standalone="no"?>
<!DOCTYPE svg PUBLIC "-//W3C//DTD SVG 1.1//EN"
 "http://www.w3.org/Graphics/SVG/1.1/DTD/svg11.dtd">
<!-- Generated by graphviz version 2.43.0 (0)
 -->
<!-- Title: followTable Pages: 1 -->
<svg width="199pt" height="141pt"
 viewBox="0.00 0.00 199.00 141.00" xmlns="http://www.w3.org/2000/svg" xmlns:xlink="http://www.w3.org/1999/xlink">
<g id="graph0" class="graph" transform="scale(1 1) rotate(0) translate(4 137)">
<title>followTable</title>
<polygon fill="white" stroke="transparent" points="-4,4 -4,-137 195,-137 195,4 -4,4"/>
<!-- h1 -->
<g id="node1" class="node">
<title>h1</title>
<polygon fill="none" stroke="black" points="8.5,-103.5 8.5,-128.5 82.5,-128.5 82.5,-103.5 8.5,-103.5"/>
<text text-anchor="start" x="13.5" y="-112.3" font-family="Times,serif" font-size="14.00">Terminal</text>
<polygon fill="none" stroke="black" points="82.5,-103.5 82.5,-128.5 109.5,-128.5 109.5,-103.5 82.5,-103.5"/>
<text text-anchor="start" x="87.5" y="-112.3" font-family="Times,serif" font-size="14.00">ID</text>
<polygon fill="none" stroke="black" points="109.5,-103.5 109.5,-128.5 183.5,-128.5 183.5,-103.5 109.5,-103.5"/>
<text text-anchor="start" x="123" y="-112.3" font-family="Times,serif" font-size="14.00">Follow</text>
<polygon fill="none" stroke="black" points="8.5,-78.5 8.5,-103.5 82.5,-103.5 82.5,-78.5 8.5,-78.5"/>
<text text-anchor="start" x="40.5" y="-87.3" font-family="Times,serif" font-size="14.00">b</text>
<polygon fill="none" stroke="black" points="82.5,-78.5 82.5,-103.5 109.5,-103.5 109.5,-78.5 82.5,-78.5"/>
<text text-anchor="start" x="91" y="-87.3" font-family="Times,serif" font-size="14.00">1</text>
<polygon fill="none" stroke="black" points="109.5,-78.5 109.5,-103.5 183.5,-103.5 183.5,-78.5 109.5,-78.5"/>
<text text-anchor="start" x="114.5" y="-87.3" font-family="Times,serif" font-size="14.00">1, 2, 3, 4</text>
<polygon fill="none" stroke="black" points="8.5,-53.5 8.5,-78.5 82.5,-78.5 82.5,-53.5 8.5,-53.5"/>
<text text-anchor="start" x="41" y="-62.3" font-family="Times,serif" font-size="14.00">a</text>
<polygon fill="none" stroke="black" points="82.5,-53.5 82.5,-78.5 109.5,-78.5 109.5,-53.5 82.5,-53.5"/>
<text text-anchor="start" x="91" y="-62.3" font-family="Times,serif" font-size="14.00">2</text>
<polygon fill="none" stroke="black" points="109.5,-53.5 109.5,-78.5 183.5,-78.5 183.5,-53.5 109.5,-53.5"/>
<text text-anchor="start" x="114.5" y="-62.3" font-family="Times,serif" font-size="14.00">1, 2, 3, 4</text>
<polygon fill="none" stroke="black" points="8.5,-28.5 8.5,-53.5 82.5,-53.5 82.5,-28.5 8.5,-28.5"/>
<text text-anchor="start" x="41.5" y="-37.3" font-family="Times,serif" font-size="14.00">c</text>
<polygon fill="none" stroke="black" points="82.5,-28.5 82.5,-53.5 109.5,-53.5 109.5,-28.5 82.5,-28.5"/>
<text text-anchor="start" x="91" y="-37.3" font-family="Times,serif" font-size="14.00">3</text>
<polygon fill="none" stroke="black" points="109.5,-28.5 109.5,-53.5 183.5,-53.5 183.5,-28.5 109.5,-28.5"/>
<text text-anchor="start" x="132.5" y="-37.3" font-family="Times,serif" font-size="14.00">3, 4</text>
<polygon fill="none" stroke="black" points="8.5,-3.5 8.5,-28.5 82.5,-28.5 82.5,-3.5 8.5,-3.5"/>
<text text-anchor="start" x="39" y="-12.3" font-family="Times,serif" font-size="14.00">#</text>
<polygon fill="none" stroke="black" points="82.5,-3.5 82.5,-28.5 109.5,-28.5 109.5,-3.5 82.5,-3.5"/>
<text text-anchor="start" x="91" y="-12.3" font-family="Times,serif" font-size="14.00">4</text>
<polygon fill="none" stroke="black" points="109.5,-3.5 109.5,-28.5 183.5,-28.5 183.5,-3.5 109.5,-3.5"/>
</g>
</g>
</svg>
