<?xml version="1.0" encoding="UTF-8" standalone="no"?>
<!DOCTYPE svg PUBLIC "-//W3C//DTD SVG 1.1//EN"
 "http://www.w3.org/Graphics/SVG/1.1/DTD/svg11.dtd">
<!-- Generated by graphviz version 2.43.0 (0)
 -->
<!-- Title: TransitionTable Pages: 1 -->
<svg width="183pt" height="116pt"
 viewBox="0.00 0.00 183.00 116.00" xmlns="http://www.w3.org/2000/svg" xmlns:xlink="http://www.w3.org/1999/xlink">
<g id="graph0" class="graph" transform="scale(1 1) rotate(0) translate(4 112)">
<title>TransitionTable</title>
<polygon fill="white" stroke="transparent" points="-4,4 -4,-112 179,-112 179,4 -4,4"/>
<!-- h1 -->
<g id="node1" class="node">
<title>h1</title>
<polygon fill="none" stroke="black" points="8.5,-79 8.5,-104 57.5,-104 57.5,-79 8.5,-79"/>
<text text-anchor="start" x="13.5" y="-87.8" font-family="Times,serif" font-size="14.00">State</text>
<polygon fill="none" stroke="black" points="57.5,-79 57.5,-104 86.5,-104 86.5,-79 57.5,-79"/>
<text text-anchor="start" x="67" y="-87.8" font-family="Times,serif" font-size="14.00">b</text>
<polygon fill="none" stroke="black" points="86.5,-79 86.5,-104 115.5,-104 115.5,-79 86.5,-79"/>
<text text-anchor="start" x="96.5" y="-87.8" font-family="Times,serif" font-size="14.00">a</text>
<polygon fill="none" stroke="black" points="115.5,-79 115.5,-104 144.5,-104 144.5,-79 115.5,-79"/>
<text text-anchor="start" x="126" y="-87.8" font-family="Times,serif" font-size="14.00">c</text>
<polygon fill="none" stroke="black" points="144.5,-79 144.5,-104 167.5,-104 167.5,-79 144.5,-79"/>
<text text-anchor="start" x="149.5" y="-87.8" font-family="Times,serif" font-size="14.00">#</text>
<polygon fill="white" stroke="transparent" points="8.5,-54 8.5,-79 57.5,-79 57.5,-54 8.5,-54"/>
<polygon fill="none" stroke="black" points="8.5,-54 8.5,-79 57.5,-79 57.5,-54 8.5,-54"/>
<text text-anchor="start" x="23.5" y="-62.8" font-family="Times,serif" font-size="14.00">S0</text>
<polygon fill="none" stroke="black" points="57.5,-54 57.5,-79 86.5,-79 86.5,-54 57.5,-54"/>
<text text-anchor="start" x="62.5" y="-62.8" font-family="Times,serif" font-size="14.00">S1</text>
<polygon fill="none" stroke="black" points="86.5,-54 86.5,-79 115.5,-79 115.5,-54 86.5,-54"/>
<text text-anchor="start" x="91.5" y="-62.8" font-family="Times,serif" font-size="14.00">S1</text>
<polygon fill="none" stroke="black" points="115.5,-54 115.5,-79 144.5,-79 144.5,-54 115.5,-54"/>
<polygon fill="none" stroke="black" points="144.5,-54 144.5,-79 167.5,-79 167.5,-54 144.5,-54"/>
<polygon fill="red" stroke="transparent" points="8.5,-29 8.5,-54 57.5,-54 57.5,-29 8.5,-29"/>
<polygon fill="none" stroke="black" points="8.5,-29 8.5,-54 57.5,-54 57.5,-29 8.5,-29"/>
<text text-anchor="start" x="23.5" y="-37.8" font-family="Times,serif" font-size="14.00">S1</text>
<polygon fill="none" stroke="black" points="57.5,-29 57.5,-54 86.5,-54 86.5,-29 57.5,-29"/>
<text text-anchor="start" x="62.5" y="-37.8" font-family="Times,serif" font-size="14.00">S1</text>
<polygon fill="none" stroke="black" points="86.5,-29 86.5,-54 115.5,-54 115.5,-29 86.5,-29"/>
<text text-anchor="start" x="91.5" y="-37.8" font-family="Times,serif" font-size="14.00">S1</text>
<polygon fill="none" stroke="black" points="115.5,-29 115.5,-54 144.5,-54 144.5,-29 115.5,-29"/>
<text text-anchor="start" x="120.5" y="-37.8" font-family="Times,serif" font-size="14.00">S2</text>
<polygon fill="none" stroke="black" points="144.5,-29 144.5,-54 167.5,-54 167.5,-29 144.5,-29"/>
<polygon fill="red" stroke="transparent" points="8.5,-4 8.5,-29 57.5,-29 57.5,-4 8.5,-4"/>
<polygon fill="none" stroke="black" points="8.5,-4 8.5,-29 57.5,-29 57.5,-4 8.5,-4"/>
<text text-anchor="start" x="23.5" y="-12.8" font-family="Times,serif" font-size="14.00">S2</text>
<polygon fill="none" stroke="black" points="57.5,-4 57.5,-29 86.5,-29 86.5,-4 57.5,-4"/>
<polygon fill="none" stroke="black" points="86.5,-4 86.5,-29 115.5,-29 115.5,-4 86.5,-4"/>
<polygon fill="none" stroke="black" points="115.5,-4 115.5,-29 144.5,-29 144.5,-4 115.5,-4"/>
<text text-anchor="start" x="120.5" y="-12.8" font-family="Times,serif" font-size="14.00">S2</text>
<polygon fill="none" stroke="black" points="144.5,-4 144.5,-29 167.5,-29 167.5,-4 144.5,-4"/>
</g>
</g>
</svg>
