<?xml version="1.0" encoding="UTF-8" standalone="no"?>
<!DOCTYPE svg PUBLIC "-//W3C//DTD SVG 1.1//EN"
 "http://www.w3.org/Graphics/SVG/1.1/DTD/svg11.dtd">
<!-- Generated by graphviz version 2.43.0 (0)
 -->
<!-- Title: Tree Pages: 1 -->
<svg width="326pt" height="456pt"
 viewBox="0.00 0.00 326.00 456.00" xmlns="http://www.w3.org/2000/svg" xmlns:xlink="http://www.w3.org/1999/xlink">
<g id="graph0" class="graph" transform="scale(1 1) rotate(0) translate(4 452)">
<title>Tree</title>
<polygon fill="white" stroke="transparent" points="-4,4 -4,-452 322,-452 322,4 -4,4"/>
<!-- 012f5f68a7c1f823b2e313076f89baf1b43f24c32f24a66521f34a1f7897c323 -->
<g id="node1" class="node">
<title>012f5f68a7c1f823b2e313076f89baf1b43f24c32f24a66521f34a1f7897c323</title>
<polygon fill="none" stroke="black" points="0,-0.5 0,-69.5 81,-69.5 81,-0.5 0,-0.5"/>
<text text-anchor="middle" x="13" y="-31.3" font-family="Times,serif" font-size="14.00">1</text>
<polyline fill="none" stroke="black" points="26,-0.5 26,-69.5 "/>
<text text-anchor="middle" x="40.5" y="-54.3" font-family="Times,serif" font-size="14.00">N</text>
<polyline fill="none" stroke="black" points="26,-46.5 55,-46.5 "/>
<text text-anchor="middle" x="40.5" y="-31.3" font-family="Times,serif" font-size="14.00">b</text>
<polyline fill="none" stroke="black" points="26,-23.5 55,-23.5 "/>
<text text-anchor="middle" x="40.5" y="-8.3" font-family="Times,serif" font-size="14.00">1</text>
<polyline fill="none" stroke="black" points="55,-0.5 55,-69.5 "/>
<text text-anchor="middle" x="68" y="-31.3" font-family="Times,serif" font-size="14.00">1</text>
</g>
<!-- d2aa3834369c29ff46c455a8c4e4272038242881b4a26a4cac9675f0f991ff0e -->
<g id="node2" class="node">
<title>d2aa3834369c29ff46c455a8c4e4272038242881b4a26a4cac9675f0f991ff0e</title>
<polygon fill="none" stroke="black" points="99,-0.5 99,-69.5 180,-69.5 180,-0.5 99,-0.5"/>
<text text-anchor="middle" x="112" y="-31.3" font-family="Times,serif" font-size="14.00">2</text>
<polyline fill="none" stroke="black" points="125,-0.5 125,-69.5 "/>
<text text-anchor="middle" x="139.5" y="-54.3" font-family="Times,serif" font-size="14.00">N</text>
<polyline fill="none" stroke="black" points="125,-46.5 154,-46.5 "/>
<text text-anchor="middle" x="139.5" y="-31.3" font-family="Times,serif" font-size="14.00">a</text>
<polyline fill="none" stroke="black" points="125,-23.5 154,-23.5 "/>
<text text-anchor="middle" x="139.5" y="-8.3" font-family="Times,serif" font-size="14.00">2</text>
<polyline fill="none" stroke="black" points="154,-0.5 154,-69.5 "/>
<text text-anchor="middle" x="167" y="-31.3" font-family="Times,serif" font-size="14.00">2</text>
</g>
<!-- 0ecec75d07abfe72e532d8dc28ba9969a4447e015ee8cae5256aef67fef39591 -->
<g id="node3" class="node">
<title>0ecec75d07abfe72e532d8dc28ba9969a4447e015ee8cae5256aef67fef39591</title>
<polygon fill="none" stroke="black" points="31.5,-118 31.5,-164 147.5,-164 147.5,-118 31.5,-118"/>
<text text-anchor="middle" x="51" y="-137.3" font-family="Times,serif" font-size="14.00">1,2</text>
<polyline fill="none" stroke="black" points="70.5,-118 70.5,-164 "/>
<text text-anchor="middle" x="89.5" y="-148.8" font-family="Times,serif" font-size="14.00">N</text>
<polyline fill="none" stroke="black" points="70.5,-141 108.5,-141 "/>
<text text-anchor="middle" x="89.5" y="-125.8" font-family="Times,serif" font-size="14.00">OR</text>
<polyline fill="none" stroke="black" points="108.5,-118 108.5,-164 "/>
<text text-anchor="middle" x="128" y="-137.3" font-family="Times,serif" font-size="14.00">1,2</text>
</g>
<!-- 0ecec75d07abfe72e532d8dc28ba9969a4447e015ee8cae5256aef67fef39591&#45;&gt;012f5f68a7c1f823b2e313076f89baf1b43f24c32f24a66521f34a1f7897c323 -->
<g id="edge1" class="edge">
<title>0ecec75d07abfe72e532d8dc28ba9969a4447e015ee8cae5256aef67fef39591&#45;&gt;012f5f68a7c1f823b2e313076f89baf1b43f24c32f24a66521f34a1f7897c323</title>
<path fill="none" stroke="black" d="M79.11,-117.94C73.77,-106.61 67.07,-92.39 60.76,-79"/>
<polygon fill="black" stroke="black" points="63.9,-77.46 56.47,-69.9 57.57,-80.44 63.9,-77.46"/>
</g>
<!-- 0ecec75d07abfe72e532d8dc28ba9969a4447e015ee8cae5256aef67fef39591&#45;&gt;d2aa3834369c29ff46c455a8c4e4272038242881b4a26a4cac9675f0f991ff0e -->
<g id="edge2" class="edge">
<title>0ecec75d07abfe72e532d8dc28ba9969a4447e015ee8cae5256aef67fef39591&#45;&gt;d2aa3834369c29ff46c455a8c4e4272038242881b4a26a4cac9675f0f991ff0e</title>
<path fill="none" stroke="black" d="M100.1,-117.94C105.55,-106.61 112.39,-92.39 118.83,-79"/>
<polygon fill="black" stroke="black" points="122.02,-80.43 123.2,-69.9 115.71,-77.4 122.02,-80.43"/>
</g>
<!-- fc44c9bba0dbd6fbb4378d2cfbc58a0993c718cd22184ccc52d5e16e2fcf8072 -->
<g id="node4" class="node">
<title>fc44c9bba0dbd6fbb4378d2cfbc58a0993c718cd22184ccc52d5e16e2fcf8072</title>
<polygon fill="none" stroke="black" points="39,-212.5 39,-258.5 146,-258.5 146,-212.5 39,-212.5"/>
<text text-anchor="middle" x="58.5" y="-231.8" font-family="Times,serif" font-size="14.00">1,2</text>
<polyline fill="none" stroke="black" points="78,-212.5 78,-258.5 "/>
<text text-anchor="middle" x="92.5" y="-243.3" font-family="Times,serif" font-size="14.00">N</text>
<polyline fill="none" stroke="black" points="78,-235.5 107,-235.5 "/>
<text text-anchor="middle" x="92.5" y="-220.3" font-family="Times,serif" font-size="14.00">+</text>
<polyline fill="none" stroke="black" points="107,-212.5 107,-258.5 "/>
<text text-anchor="middle" x="126.5" y="-231.8" font-family="Times,serif" font-size="14.00">1,2</text>
</g>
<!-- fc44c9bba0dbd6fbb4378d2cfbc58a0993c718cd22184ccc52d5e16e2fcf8072&#45;&gt;0ecec75d07abfe72e532d8dc28ba9969a4447e015ee8cae5256aef67fef39591 -->
<g id="edge3" class="edge">
<title>fc44c9bba0dbd6fbb4378d2cfbc58a0993c718cd22184ccc52d5e16e2fcf8072&#45;&gt;0ecec75d07abfe72e532d8dc28ba9969a4447e015ee8cae5256aef67fef39591</title>
<path fill="none" stroke="black" d="M91.77,-212.11C91.41,-200.75 90.95,-186.74 90.55,-174.24"/>
<polygon fill="black" stroke="black" points="94.04,-174.07 90.22,-164.19 87.05,-174.29 94.04,-174.07"/>
</g>
<!-- b1f2314ea49f89c0bc5ff8c31dfb8622d8119b35d5594cac1a90f4b9338529c8 -->
<g id="node5" class="node">
<title>b1f2314ea49f89c0bc5ff8c31dfb8622d8119b35d5594cac1a90f4b9338529c8</title>
<polygon fill="none" stroke="black" points="166,-106.5 166,-175.5 247,-175.5 247,-106.5 166,-106.5"/>
<text text-anchor="middle" x="179" y="-137.3" font-family="Times,serif" font-size="14.00">3</text>
<polyline fill="none" stroke="black" points="192,-106.5 192,-175.5 "/>
<text text-anchor="middle" x="206.5" y="-160.3" font-family="Times,serif" font-size="14.00">N</text>
<polyline fill="none" stroke="black" points="192,-152.5 221,-152.5 "/>
<text text-anchor="middle" x="206.5" y="-137.3" font-family="Times,serif" font-size="14.00">c</text>
<polyline fill="none" stroke="black" points="192,-129.5 221,-129.5 "/>
<text text-anchor="middle" x="206.5" y="-114.3" font-family="Times,serif" font-size="14.00">3</text>
<polyline fill="none" stroke="black" points="221,-106.5 221,-175.5 "/>
<text text-anchor="middle" x="234" y="-137.3" font-family="Times,serif" font-size="14.00">3</text>
</g>
<!-- 7a67572b9ee7d0e2185a10d3cc876789afdc6793bca784248f87b705437c24e4 -->
<g id="node6" class="node">
<title>7a67572b9ee7d0e2185a10d3cc876789afdc6793bca784248f87b705437c24e4</title>
<polygon fill="none" stroke="black" points="165.5,-212.5 165.5,-258.5 243.5,-258.5 243.5,-212.5 165.5,-212.5"/>
<text text-anchor="middle" x="178.5" y="-231.8" font-family="Times,serif" font-size="14.00">3</text>
<polyline fill="none" stroke="black" points="191.5,-212.5 191.5,-258.5 "/>
<text text-anchor="middle" x="204.5" y="-243.3" font-family="Times,serif" font-size="14.00">A</text>
<polyline fill="none" stroke="black" points="191.5,-235.5 217.5,-235.5 "/>
<text text-anchor="middle" x="204.5" y="-220.3" font-family="Times,serif" font-size="14.00">*</text>
<polyline fill="none" stroke="black" points="217.5,-212.5 217.5,-258.5 "/>
<text text-anchor="middle" x="230.5" y="-231.8" font-family="Times,serif" font-size="14.00">3</text>
</g>
<!-- 7a67572b9ee7d0e2185a10d3cc876789afdc6793bca784248f87b705437c24e4&#45;&gt;b1f2314ea49f89c0bc5ff8c31dfb8622d8119b35d5594cac1a90f4b9338529c8 -->
<g id="edge4" class="edge">
<title>7a67572b9ee7d0e2185a10d3cc876789afdc6793bca784248f87b705437c24e4&#45;&gt;b1f2314ea49f89c0bc5ff8c31dfb8622d8119b35d5594cac1a90f4b9338529c8</title>
<path fill="none" stroke="black" d="M204.98,-212.11C205.16,-204.18 205.35,-194.97 205.55,-185.88"/>
<polygon fill="black" stroke="black" points="209.05,-185.82 205.77,-175.75 202.05,-185.67 209.05,-185.82"/>
</g>
<!-- b28def0cedfe499893254c710f23794da3aaf6b2cd69a17df10538ff51f12074 -->
<g id="node7" class="node">
<title>b28def0cedfe499893254c710f23794da3aaf6b2cd69a17df10538ff51f12074</title>
<polygon fill="none" stroke="black" points="76.5,-307 76.5,-353 218.5,-353 218.5,-307 76.5,-307"/>
<text text-anchor="middle" x="96" y="-326.3" font-family="Times,serif" font-size="14.00">1,2</text>
<polyline fill="none" stroke="black" points="115.5,-307 115.5,-353 "/>
<text text-anchor="middle" x="140.5" y="-337.8" font-family="Times,serif" font-size="14.00">N</text>
<polyline fill="none" stroke="black" points="115.5,-330 165.5,-330 "/>
<text text-anchor="middle" x="140.5" y="-314.8" font-family="Times,serif" font-size="14.00">AND</text>
<polyline fill="none" stroke="black" points="165.5,-307 165.5,-353 "/>
<text text-anchor="middle" x="192" y="-326.3" font-family="Times,serif" font-size="14.00">3,1,2</text>
</g>
<!-- b28def0cedfe499893254c710f23794da3aaf6b2cd69a17df10538ff51f12074&#45;&gt;fc44c9bba0dbd6fbb4378d2cfbc58a0993c718cd22184ccc52d5e16e2fcf8072 -->
<g id="edge5" class="edge">
<title>b28def0cedfe499893254c710f23794da3aaf6b2cd69a17df10538ff51f12074&#45;&gt;fc44c9bba0dbd6fbb4378d2cfbc58a0993c718cd22184ccc52d5e16e2fcf8072</title>
<path fill="none" stroke="black" d="M134.19,-306.61C127.23,-294.91 118.6,-280.4 111,-267.62"/>
<polygon fill="black" stroke="black" points="113.81,-265.49 105.69,-258.69 107.79,-269.07 113.81,-265.49"/>
</g>
<!-- b28def0cedfe499893254c710f23794da3aaf6b2cd69a17df10538ff51f12074&#45;&gt;7a67572b9ee7d0e2185a10d3cc876789afdc6793bca784248f87b705437c24e4 -->
<g id="edge6" class="edge">
<title>b28def0cedfe499893254c710f23794da3aaf6b2cd69a17df10538ff51f12074&#45;&gt;7a67572b9ee7d0e2185a10d3cc876789afdc6793bca784248f87b705437c24e4</title>
<path fill="none" stroke="black" d="M161.3,-306.61C168.58,-294.79 177.62,-280.11 185.55,-267.25"/>
<polygon fill="black" stroke="black" points="188.56,-269.04 190.83,-258.69 182.6,-265.36 188.56,-269.04"/>
</g>
<!-- 1049ba86adac52ebb23840d6db7cf5b772efe71643ebe8770219c12e5755d5a1 -->
<g id="node8" class="node">
<title>1049ba86adac52ebb23840d6db7cf5b772efe71643ebe8770219c12e5755d5a1</title>
<polygon fill="none" stroke="black" points="237,-295.5 237,-364.5 318,-364.5 318,-295.5 237,-295.5"/>
<text text-anchor="middle" x="250" y="-326.3" font-family="Times,serif" font-size="14.00">4</text>
<polyline fill="none" stroke="black" points="263,-295.5 263,-364.5 "/>
<text text-anchor="middle" x="277.5" y="-349.3" font-family="Times,serif" font-size="14.00">N</text>
<polyline fill="none" stroke="black" points="263,-341.5 292,-341.5 "/>
<text text-anchor="middle" x="277.5" y="-326.3" font-family="Times,serif" font-size="14.00">#</text>
<polyline fill="none" stroke="black" points="263,-318.5 292,-318.5 "/>
<text text-anchor="middle" x="277.5" y="-303.3" font-family="Times,serif" font-size="14.00">4</text>
<polyline fill="none" stroke="black" points="292,-295.5 292,-364.5 "/>
<text text-anchor="middle" x="305" y="-326.3" font-family="Times,serif" font-size="14.00">4</text>
</g>
<!-- eda7d65c8fb2bf46ed7f7b69c6b1680a2d6195e14067048aded4220206199d93 -->
<g id="node9" class="node">
<title>eda7d65c8fb2bf46ed7f7b69c6b1680a2d6195e14067048aded4220206199d93</title>
<polygon fill="none" stroke="black" points="155,-401.5 155,-447.5 270,-447.5 270,-401.5 155,-401.5"/>
<text text-anchor="middle" x="174.5" y="-420.8" font-family="Times,serif" font-size="14.00">1,2</text>
<polyline fill="none" stroke="black" points="194,-401.5 194,-447.5 "/>
<text text-anchor="middle" x="219" y="-432.3" font-family="Times,serif" font-size="14.00">N</text>
<polyline fill="none" stroke="black" points="194,-424.5 244,-424.5 "/>
<text text-anchor="middle" x="219" y="-409.3" font-family="Times,serif" font-size="14.00">AND</text>
<polyline fill="none" stroke="black" points="244,-401.5 244,-447.5 "/>
<text text-anchor="middle" x="257" y="-420.8" font-family="Times,serif" font-size="14.00">4</text>
</g>
<!-- eda7d65c8fb2bf46ed7f7b69c6b1680a2d6195e14067048aded4220206199d93&#45;&gt;b28def0cedfe499893254c710f23794da3aaf6b2cd69a17df10538ff51f12074 -->
<g id="edge7" class="edge">
<title>eda7d65c8fb2bf46ed7f7b69c6b1680a2d6195e14067048aded4220206199d93&#45;&gt;b28def0cedfe499893254c710f23794da3aaf6b2cd69a17df10538ff51f12074</title>
<path fill="none" stroke="black" d="M196.77,-401.11C188.38,-389.18 177.95,-374.33 168.85,-361.38"/>
<polygon fill="black" stroke="black" points="171.7,-359.36 163.09,-353.19 165.98,-363.38 171.7,-359.36"/>
</g>
<!-- eda7d65c8fb2bf46ed7f7b69c6b1680a2d6195e14067048aded4220206199d93&#45;&gt;1049ba86adac52ebb23840d6db7cf5b772efe71643ebe8770219c12e5755d5a1 -->
<g id="edge8" class="edge">
<title>eda7d65c8fb2bf46ed7f7b69c6b1680a2d6195e14067048aded4220206199d93&#45;&gt;1049ba86adac52ebb23840d6db7cf5b772efe71643ebe8770219c12e5755d5a1</title>
<path fill="none" stroke="black" d="M228.23,-401.11C234.16,-392.67 241.12,-382.78 247.9,-373.12"/>
<polygon fill="black" stroke="black" points="250.9,-374.94 253.79,-364.75 245.17,-370.92 250.9,-374.94"/>
</g>
</g>
</svg>
